<svg xmlns="http://www.w3.org/2000/svg" viewBox="0 0 800 600"><rect width="800" height="600" fill="#e7ebdc"/><ellipse cx="407" cy="525" rx="260" ry="26" fill="#102f2620"/><g transform="translate(185 78) rotate(-5 220 220)"><rect x="-16" y="-16" width="472" height="472" rx="14" fill="#25483c"/><rect x="0" y="0" width="55" height="55" fill="#dce5cd"/><rect x="55" y="0" width="55" height="55" fill="#658773"/><circle cx="82.5" cy="29.5" r="20" fill="#0003"/><circle cx="82.5" cy="25.5" r="20" fill="#203c32"/><circle cx="82.5" cy="25.5" r="15" fill="none" stroke="#51715f" stroke-width="2"/><rect x="110" y="0" width="55" height="55" fill="#dce5cd"/><rect x="165" y="0" width="55" height="55" fill="#658773"/><circle cx="192.5" cy="29.5" r="20" fill="#0003"/><circle cx="192.5" cy="25.5" r="20" fill="#203c32"/><circle cx="192.5" cy="25.5" r="15" fill="none" stroke="#51715f" stroke-width="2"/><rect x="220" y="0" width="55" height="55" fill="#dce5cd"/><rect x="275" y="0" width="55" height="55" fill="#658773"/><circle cx="302.5" cy="29.5" r="20" fill="#0003"/><circle cx="302.5" cy="25.5" r="20" fill="#203c32"/><circle cx="302.5" cy="25.5" r="15" fill="none" stroke="#51715f" stroke-width="2"/><rect x="330" y="0" width="55" height="55" fill="#dce5cd"/><rect x="385" y="0" width="55" height="55" fill="#658773"/><circle cx="412.5" cy="29.5" r="20" fill="#0003"/><circle cx="412.5" cy="25.5" r="20" fill="#203c32"/><circle cx="412.5" cy="25.5" r="15" fill="none" stroke="#51715f" stroke-width="2"/><rect x="0" y="55" width="55" height="55" fill="#658773"/><circle cx="27.5" cy="84.5" r="20" fill="#0003"/><circle cx="27.5" cy="80.5" r="20" fill="#203c32"/><circle cx="27.5" cy="80.5" r="15" fill="none" stroke="#51715f" stroke-width="2"/><rect x="55" y="55" width="55" height="55" fill="#dce5cd"/><rect x="110" y="55" width="55" height="55" fill="#658773"/><circle cx="137.5" cy="84.5" r="20" fill="#0003"/><circle cx="137.5" cy="80.5" r="20" fill="#203c32"/><circle cx="137.5" cy="80.5" r="15" fill="none" stroke="#51715f" stroke-width="2"/><rect x="165" y="55" width="55" height="55" fill="#dce5cd"/><rect x="220" y="55" width="55" height="55" fill="#658773"/><circle cx="247.5" cy="84.5" r="20" fill="#0003"/><circle cx="247.5" cy="80.5" r="20" fill="#203c32"/><circle cx="247.5" cy="80.5" r="15" fill="none" stroke="#51715f" stroke-width="2"/><rect x="275" y="55" width="55" height="55" fill="#dce5cd"/><rect x="330" y="55" width="55" height="55" fill="#658773"/><circle cx="357.5" cy="84.5" r="20" fill="#0003"/><circle cx="357.5" cy="80.5" r="20" fill="#203c32"/><circle cx="357.5" cy="80.5" r="15" fill="none" stroke="#51715f" stroke-width="2"/><rect x="385" y="55" width="55" height="55" fill="#dce5cd"/><rect x="0" y="110" width="55" height="55" fill="#dce5cd"/><rect x="55" y="110" width="55" height="55" fill="#658773"/><circle cx="82.5" cy="139.5" r="20" fill="#0003"/><circle cx="82.5" cy="135.5" r="20" fill="#203c32"/><circle cx="82.5" cy="135.5" r="15" fill="none" stroke="#51715f" stroke-width="2"/><rect x="110" y="110" width="55" height="55" fill="#dce5cd"/><rect x="165" y="110" width="55" height="55" fill="#658773"/><circle cx="192.5" cy="139.5" r="20" fill="#0003"/><circle cx="192.5" cy="135.5" r="20" fill="#203c32"/><circle cx="192.5" cy="135.5" r="15" fill="none" stroke="#51715f" stroke-width="2"/><rect x="220" y="110" width="55" height="55" fill="#dce5cd"/><rect x="275" y="110" width="55" height="55" fill="#658773"/><circle cx="302.5" cy="139.5" r="20" fill="#0003"/><circle cx="302.5" cy="135.5" r="20" fill="#203c32"/><circle cx="302.5" cy="135.5" r="15" fill="none" stroke="#51715f" stroke-width="2"/><rect x="330" y="110" width="55" height="55" fill="#dce5cd"/><rect x="385" y="110" width="55" height="55" fill="#658773"/><circle cx="412.5" cy="139.5" r="20" fill="#0003"/><circle cx="412.5" cy="135.5" r="20" fill="#203c32"/><circle cx="412.5" cy="135.5" r="15" fill="none" stroke="#51715f" stroke-width="2"/><rect x="0" y="165" width="55" height="55" fill="#658773"/><rect x="55" y="165" width="55" height="55" fill="#dce5cd"/><rect x="110" y="165" width="55" height="55" fill="#658773"/><rect x="165" y="165" width="55" height="55" fill="#dce5cd"/><rect x="220" y="165" width="55" height="55" fill="#658773"/><rect x="275" y="165" width="55" height="55" fill="#dce5cd"/><rect x="330" y="165" width="55" height="55" fill="#658773"/><rect x="385" y="165" width="55" height="55" fill="#dce5cd"/><rect x="0" y="220" width="55" height="55" fill="#dce5cd"/><rect x="55" y="220" width="55" height="55" fill="#658773"/><rect x="110" y="220" width="55" height="55" fill="#dce5cd"/><rect x="165" y="220" width="55" height="55" fill="#658773"/><rect x="220" y="220" width="55" height="55" fill="#dce5cd"/><rect x="275" y="220" width="55" height="55" fill="#658773"/><rect x="330" y="220" width="55" height="55" fill="#dce5cd"/><rect x="385" y="220" width="55" height="55" fill="#658773"/><rect x="0" y="275" width="55" height="55" fill="#658773"/><circle cx="27.5" cy="304.5" r="20" fill="#0003"/><circle cx="27.5" cy="300.5" r="20" fill="#f5f5e4"/><circle cx="27.5" cy="300.5" r="15" fill="none" stroke="#c5cfb4" stroke-width="2"/><rect x="55" y="275" width="55" height="55" fill="#dce5cd"/><rect x="110" y="275" width="55" height="55" fill="#658773"/><circle cx="137.5" cy="304.5" r="20" fill="#0003"/><circle cx="137.5" cy="300.5" r="20" fill="#f5f5e4"/><circle cx="137.5" cy="300.5" r="15" fill="none" stroke="#c5cfb4" stroke-width="2"/><rect x="165" y="275" width="55" height="55" fill="#dce5cd"/><rect x="220" y="275" width="55" height="55" fill="#658773"/><circle cx="247.5" cy="304.5" r="20" fill="#0003"/><circle cx="247.5" cy="300.5" r="20" fill="#f5f5e4"/><circle cx="247.5" cy="300.5" r="15" fill="none" stroke="#c5cfb4" stroke-width="2"/><rect x="275" y="275" width="55" height="55" fill="#dce5cd"/><rect x="330" y="275" width="55" height="55" fill="#658773"/><circle cx="357.5" cy="304.5" r="20" fill="#0003"/><circle cx="357.5" cy="300.5" r="20" fill="#f5f5e4"/><circle cx="357.5" cy="300.5" r="15" fill="none" stroke="#c5cfb4" stroke-width="2"/><rect x="385" y="275" width="55" height="55" fill="#dce5cd"/><rect x="0" y="330" width="55" height="55" fill="#dce5cd"/><rect x="55" y="330" width="55" height="55" fill="#658773"/><circle cx="82.5" cy="359.5" r="20" fill="#0003"/><circle cx="82.5" cy="355.5" r="20" fill="#f5f5e4"/><circle cx="82.5" cy="355.5" r="15" fill="none" stroke="#c5cfb4" stroke-width="2"/><rect x="110" y="330" width="55" height="55" fill="#dce5cd"/><rect x="165" y="330" width="55" height="55" fill="#658773"/><circle cx="192.5" cy="359.5" r="20" fill="#0003"/><circle cx="192.5" cy="355.5" r="20" fill="#f5f5e4"/><circle cx="192.5" cy="355.5" r="15" fill="none" stroke="#c5cfb4" stroke-width="2"/><rect x="220" y="330" width="55" height="55" fill="#dce5cd"/><rect x="275" y="330" width="55" height="55" fill="#658773"/><circle cx="302.5" cy="359.5" r="20" fill="#0003"/><circle cx="302.5" cy="355.5" r="20" fill="#f5f5e4"/><circle cx="302.5" cy="355.5" r="15" fill="none" stroke="#c5cfb4" stroke-width="2"/><rect x="330" y="330" width="55" height="55" fill="#dce5cd"/><rect x="385" y="330" width="55" height="55" fill="#658773"/><circle cx="412.5" cy="359.5" r="20" fill="#0003"/><circle cx="412.5" cy="355.5" r="20" fill="#f5f5e4"/><circle cx="412.5" cy="355.5" r="15" fill="none" stroke="#c5cfb4" stroke-width="2"/><rect x="0" y="385" width="55" height="55" fill="#658773"/><circle cx="27.5" cy="414.5" r="20" fill="#0003"/><circle cx="27.5" cy="410.5" r="20" fill="#f5f5e4"/><circle cx="27.5" cy="410.5" r="15" fill="none" stroke="#c5cfb4" stroke-width="2"/><rect x="55" y="385" width="55" height="55" fill="#dce5cd"/><rect x="110" y="385" width="55" height="55" fill="#658773"/><circle cx="137.5" cy="414.5" r="20" fill="#0003"/><circle cx="137.5" cy="410.5" r="20" fill="#f5f5e4"/><circle cx="137.5" cy="410.5" r="15" fill="none" stroke="#c5cfb4" stroke-width="2"/><rect x="165" y="385" width="55" height="55" fill="#dce5cd"/><rect x="220" y="385" width="55" height="55" fill="#658773"/><circle cx="247.5" cy="414.5" r="20" fill="#0003"/><circle cx="247.5" cy="410.5" r="20" fill="#f5f5e4"/><circle cx="247.5" cy="410.5" r="15" fill="none" stroke="#c5cfb4" stroke-width="2"/><rect x="275" y="385" width="55" height="55" fill="#dce5cd"/><rect x="330" y="385" width="55" height="55" fill="#658773"/><circle cx="357.5" cy="414.5" r="20" fill="#0003"/><circle cx="357.5" cy="410.5" r="20" fill="#f5f5e4"/><circle cx="357.5" cy="410.5" r="15" fill="none" stroke="#c5cfb4" stroke-width="2"/><rect x="385" y="385" width="55" height="55" fill="#dce5cd"/></g></svg>